<?xml version="1.0" encoding="UTF-8" standalone="no"?>
<!-- Uploaded to: SVG Repo, www.svgrepo.com, Generator: SVG Repo Mixer Tools -->

<svg
   fill="#000000"
   height="800px"
   width="800px"
   version="1.1"
   id="Capa_1"
   viewBox="0 0 29.978 29.978"
   xml:space="preserve"
   sodipodi:docname="download-button.svg"
   inkscape:version="1.3.2 (091e20e, 2023-11-25, custom)"
   xmlns:inkscape="http://www.inkscape.org/namespaces/inkscape"
   xmlns:sodipodi="http://sodipodi.sourceforge.net/DTD/sodipodi-0.dtd"
   xmlns="http://www.w3.org/2000/svg"
   xmlns:svg="http://www.w3.org/2000/svg"><defs
   id="defs17" /><sodipodi:namedview
   id="namedview17"
   pagecolor="#ffffff"
   bordercolor="#000000"
   borderopacity="0.25"
   inkscape:showpageshadow="2"
   inkscape:pageopacity="0.0"
   inkscape:pagecheckerboard="0"
   inkscape:deskcolor="#d1d1d1"
   inkscape:zoom="1.48875"
   inkscape:cx="399.66415"
   inkscape:cy="400"
   inkscape:window-width="2560"
   inkscape:window-height="1387"
   inkscape:window-x="-8"
   inkscape:window-y="10"
   inkscape:window-maximized="1"
   inkscape:current-layer="Capa_1" />
<g
   id="g17"
   style="fill:#ffffff">
	<path
   d="M25.462,19.105v6.848H4.515v-6.848H0.489v8.861c0,1.111,0.9,2.012,2.016,2.012h24.967c1.115,0,2.016-0.9,2.016-2.012   v-8.861H25.462z"
   id="path1"
   style="fill:#ffffff" />
	<path
   d="M14.62,18.426l-5.764-6.965c0,0-0.877-0.828,0.074-0.828s3.248,0,3.248,0s0-0.557,0-1.416c0-2.449,0-6.906,0-8.723   c0,0-0.129-0.494,0.615-0.494c0.75,0,4.035,0,4.572,0c0.536,0,0.524,0.416,0.524,0.416c0,1.762,0,6.373,0,8.742   c0,0.768,0,1.266,0,1.266s1.842,0,2.998,0c1.154,0,0.285,0.867,0.285,0.867s-4.904,6.51-5.588,7.193   C15.092,18.979,14.62,18.426,14.62,18.426z"
   id="path2"
   style="fill:#ffffff" />
	<g
   id="g2"
   style="fill:#ffffff">
	</g>
	<g
   id="g3"
   style="fill:#ffffff">
	</g>
	<g
   id="g4"
   style="fill:#ffffff">
	</g>
	<g
   id="g5"
   style="fill:#ffffff">
	</g>
	<g
   id="g6"
   style="fill:#ffffff">
	</g>
	<g
   id="g7"
   style="fill:#ffffff">
	</g>
	<g
   id="g8"
   style="fill:#ffffff">
	</g>
	<g
   id="g9"
   style="fill:#ffffff">
	</g>
	<g
   id="g10"
   style="fill:#ffffff">
	</g>
	<g
   id="g11"
   style="fill:#ffffff">
	</g>
	<g
   id="g12"
   style="fill:#ffffff">
	</g>
	<g
   id="g13"
   style="fill:#ffffff">
	</g>
	<g
   id="g14"
   style="fill:#ffffff">
	</g>
	<g
   id="g15"
   style="fill:#ffffff">
	</g>
	<g
   id="g16"
   style="fill:#ffffff">
	</g>
</g>
</svg>
