<?xml version="1.0" encoding="UTF-8" ?>
<svg version="1.1" width="16" height="16" xmlns="http://www.w3.org/2000/svg" shape-rendering="crispEdges">
<rect x="1" y="0" width="3" height="7" fill="#EB6FB9" />
<rect x="5" y="0" width="1" height="2" fill="#EB6FB9" />
<rect x="9" y="0" width="3" height="7" fill="#EB6FB9" />
<rect x="13" y="0" width="1" height="2" fill="#EB6FB9" />
<rect x="6" y="1" width="1" height="1" fill="#EB6FB9" />
<rect x="14" y="1" width="1" height="1" fill="#EB6FB9" />
<rect x="4" y="3" width="3" height="4" fill="#EB6FB9" />
<rect x="12" y="3" width="3" height="4" fill="#EB6FB9" />
<rect x="1" y="9" width="3" height="7" fill="#85EBD7" />
<rect x="5" y="9" width="1" height="2" fill="#85EBD7" />
<rect x="9" y="9" width="3" height="7" fill="#85EBD7" />
<rect x="13" y="9" width="1" height="2" fill="#85EBD7" />
<rect x="6" y="10" width="1" height="1" fill="#85EBD7" />
<rect x="14" y="10" width="1" height="1" fill="#85EBD7" />
<rect x="4" y="12" width="3" height="4" fill="#85EBD7" />
<rect x="12" y="12" width="3" height="4" fill="#85EBD7" />
</svg>